Coordinates
version=1
nRows=10
nColumns=63
inDegrees=yes

Units are S.I. units (second, meters, Newtons, ...)
If the header above contains a line with 'inDegrees', this indicates whether rotational values are in degrees (yes) or radians (no).

endheader
time	pelvis_tilt	pelvis_list	pelvis_rotation	pelvis_tx	pelvis_ty	pelvis_tz	hip_flexion_r	hip_adduction_r	hip_rotation_r	knee_angle_r	knee_angle_r_beta	ankle_angle_r	subtalar_angle_r	mtp_angle_r	hip_flexion_l	hip_adduction_l	hip_rotation_l	knee_angle_l	knee_angle_l_beta	ankle_angle_l	subtalar_angle_l	mtp_angle_l	L5_S1_Flex_Ext	L5_S1_Lat_Bending	L5_S1_axial_rotation	L4_L5_Flex_Ext	L4_L5_Lat_Bending	L4_L5_axial_rotation	L3_L4_Flex_Ext	L3_L4_Lat_Bending	L3_L4_axial_rotation	L2_L3_Flex_Ext	L2_L3_Lat_Bending	L2_L3_axial_rotation	L1_L2_Flex_Ext	L1_L2_Lat_Bending	L1_L2_axial_rotation	L1_T12_Flex_Ext	L1_T12_Lat_Bending	L1_T12_axial_rotation	Abs_r3	Abs_r2	Abs_r1	Abs_t1	Abs_t2	neck_flexion	neck_bending	neck_rotation	arm_flex_r	arm_add_r	arm_rot_r	elbow_flex_r	pro_sup_r	wrist_flex_r	wrist_dev_r	arm_flex_l	arm_add_l	arm_rot_l	elbow_flex_l	pro_sup_l	wrist_flex_l	wrist_dev_l
0.000000	-2.275333	-2.928480	85.361805	0.192464	0.749181	0.781683	14.556892	2.679985	2.442172	23.548216	0.410994	22.641585	-7.951527	0.000000	9.292578	-0.578432	2.532790	12.322018	0.215060	30.140120	-12.476607	0.000000	0.286457	0.291495	-0.134317	0.531979	0.387688	-0.142712	0.470620	0.708741	-0.142712	0.327392	0.708741	-0.117527	0.266004	0.594417	-0.109133	0.163682	0.451526	-0.100738	2.046134	3.297451	-0.747031	0.000000	0.000000	27.330442	4.247161	14.843617	23.803751	-16.726896	70.921013	61.499132	7.503448	1.277020	25.981563	6.583428	-13.045676	38.528351	65.419131	56.952394	12.679481	14.842619
0.016667	-2.687229	-3.016486	84.928866	0.193298	0.748579	0.782638	14.759420	2.534017	4.084143	23.431765	0.408961	23.165951	-9.330820	0.000000	9.559754	-0.217704	2.459192	12.481522	0.217844	30.297860	-12.646659	0.000000	0.285455	0.240719	-0.063969	0.530119	0.320156	-0.067967	0.468974	0.585284	-0.067967	0.326247	0.585284	-0.055973	0.265074	0.490874	-0.051975	0.163109	0.372873	-0.047977	2.038977	2.723059	-0.355777	0.000000	0.000000	27.287448	4.254452	15.035841	25.406475	-16.594877	74.505287	61.202457	7.881323	2.109791	24.103576	6.648145	-13.308697	38.023913	65.923389	57.197184	12.086436	15.367585
0.033333	-2.986421	-3.077676	84.633138	0.193922	0.748142	0.783310	14.891532	2.440660	5.403227	23.312532	0.406880	23.572709	-10.445283	0.000000	9.762215	0.042952	2.438942	12.615388	0.220180	30.443407	-12.745807	0.000000	0.284985	0.203571	-0.016823	0.529246	0.270750	-0.017875	0.468202	0.494963	-0.017875	0.325709	0.494963	-0.014720	0.264637	0.415122	-0.013669	0.162840	0.315332	-0.012617	2.035619	2.302837	-0.093566	0.000000	0.000000	27.257901	4.274296	15.173824	26.660275	-16.491374	77.416846	60.945522	8.294811	2.805954	22.629662	6.668573	-13.522785	37.609057	66.312119	57.326069	11.735103	15.739983
0.050000	-3.184119	-3.114929	84.459647	0.194356	0.747853	0.783727	14.960899	2.394587	6.428572	23.192121	0.404779	23.872932	-11.318631	0.000000	9.906144	0.213419	2.465808	12.725134	0.222095	30.577243	-12.781940	0.000000	0.285033	0.178717	0.009667	0.529334	0.237693	0.010271	0.468280	0.434531	0.010271	0.325764	0.434531	0.008458	0.264681	0.364439	0.007854	0.162868	0.276832	0.007250	2.035960	2.021677	0.053764	0.000000	0.000000	27.240880	4.305091	15.262690	27.596082	-16.414014	79.710739	60.725339	8.732595	3.376971	21.520128	6.650482	-13.691852	37.279169	66.594694	57.355510	11.596216	15.974207
0.066667	-3.291530	-3.131123	84.393414	0.194621	0.747694	0.783920	14.975189	2.390468	7.189332	23.072132	0.402685	24.077695	-11.974580	0.000000	9.997729	0.303576	2.533556	12.812277	0.223616	30.699850	-12.762951	0.000000	0.285584	0.164820	0.018047	0.530359	0.219210	0.019175	0.469186	0.400742	0.019175	0.326394	0.400742	0.015791	0.265194	0.336100	0.014663	0.163183	0.255305	0.013535	2.039900	1.864472	0.100374	0.000000	0.000000	27.235462	4.345238	15.307563	28.244829	-16.360423	81.442012	60.538919	9.183362	3.834305	20.735282	6.599642	-13.819807	37.029633	66.780488	57.301968	11.640508	16.084657
0.083333	-3.319865	-3.129138	84.419463	0.194738	0.747650	0.783917	14.942074	2.422972	7.714656	22.954167	0.400626	24.198072	-12.436845	0.000000	10.043153	0.323305	2.635953	12.878336	0.224769	30.811711	-12.696732	0.000000	0.286626	0.160544	0.010865	0.532293	0.213524	0.011544	0.470897	0.390348	0.011544	0.327585	0.390348	0.009507	0.266161	0.327382	0.008828	0.163778	0.248683	0.008148	2.047339	1.816111	0.060426	0.000000	0.000000	27.240727	4.393135	15.313565	28.637447	-16.328229	82.665712	60.383274	9.635793	4.189417	20.235429	6.521826	-13.910563	36.855835	66.878876	57.181907	11.838715	16.085730
0.100000	-3.280331	-3.111851	84.522819	0.194728	0.747704	0.783748	14.869222	2.486773	8.033697	22.839830	0.398630	24.245137	-12.729141	0.000000	10.048603	0.282486	2.766767	12.924828	0.225581	30.913308	-12.591173	0.000000	0.288143	0.164556	-0.009335	0.535110	0.218859	-0.009918	0.473390	0.400101	-0.009918	0.329319	0.400101	-0.008168	0.267570	0.335562	-0.007585	0.164645	0.254897	-0.007001	2.058177	1.861488	-0.051917	0.000000	0.000000	27.255751	4.447182	15.285822	28.804869	-16.315059	83.436886	60.255414	10.078574	4.453770	19.980878	6.422804	-13.968029	36.753158	66.899231	57.011787	12.161570	15.991822
0.116667	-3.184139	-3.082142	84.688505	0.194611	0.747838	0.783442	14.764304	2.576539	8.175605	22.730721	0.396726	24.229963	-12.875183	0.000000	10.020263	0.191001	2.919764	12.953272	0.226077	31.005122	-12.454167	0.000000	0.290122	0.175518	-0.040005	0.538786	0.233439	-0.042505	0.476642	0.426754	-0.042505	0.331581	0.426754	-0.035004	0.269407	0.357916	-0.032504	0.165776	0.271877	-0.030004	2.072313	1.985494	-0.222495	0.000000	0.000000	27.279615	4.505777	15.229457	28.778026	-16.318540	83.810580	60.152353	10.500388	4.638826	19.931936	6.308346	-13.996116	36.716989	66.850926	56.808070	12.579809	15.817332
0.133333	-3.042498	-3.042890	84.901543	0.194409	0.748037	0.783029	14.634990	2.686942	8.169532	22.628442	0.394941	24.163626	-12.898686	0.000000	9.964318	0.058730	3.088711	12.965184	0.226285	31.087636	-12.293604	0.000000	0.292549	0.192095	-0.078599	0.543293	0.255487	-0.083511	0.480629	0.467060	-0.083511	0.334354	0.467060	-0.068774	0.271661	0.391721	-0.063862	0.167162	0.297555	-0.058949	2.089648	2.173019	-0.437144	0.000000	0.000000	27.311395	4.567322	15.149594	28.587849	-16.336299	83.841842	60.071101	10.889920	4.756048	20.048909	6.184225	-13.998736	36.742711	66.743336	56.587218	13.064165	15.576657
0.150000	-2.866615	-2.996973	85.146959	0.194142	0.748283	0.782539	14.488949	2.812653	8.044628	22.534597	0.393303	24.057198	-12.823365	0.000000	9.886955	-0.104446	3.267375	12.962084	0.226231	31.161333	-12.117376	0.000000	0.295410	0.212952	-0.122571	0.548605	0.283226	-0.130232	0.485328	0.517772	-0.130232	0.337624	0.517772	-0.107250	0.274317	0.434252	-0.099589	0.168797	0.329863	-0.091928	2.110081	2.408957	-0.681704	0.000000	0.000000	27.350171	4.630215	15.051356	28.265272	-16.365962	83.585719	60.008671	11.235854	4.816897	20.292106	6.056211	-13.979798	36.825710	66.585834	56.365693	13.585373	15.284195
